<svg xmlns="http://www.w3.org/2000/svg" width="771" height="140" fill="none"><path fill="#000" fill-rule="evenodd" d="M6 0a6 6 0 0 0-6 6v134h212.121V6a6 6 0 0 0-6-6H6zm130.715 49.753c-3.762 0-6.714-3.172-7.773-6.85-2.902-10.084-12.047-17.448-22.88-17.448-10.834 0-19.979 7.364-22.88 17.447-1.06 3.68-4.011 6.85-7.773 6.85H44.756c-10.66 0-19.3 8.807-19.3 19.67 0 10.863 8.64 19.67 19.3 19.67h122.612c10.659 0 19.3-8.807 19.3-19.67 0-10.863-8.641-19.67-19.3-19.67h-30.653z" clip-rule="evenodd"/><path fill="#000" d="M308.516 32.844c-18.995 0-25.857 11.617-29.391 17.956h-1.199V0H258v136.719h19.459v-15.956h1.666c3.6 6.542 10.929 17.957 29.59 17.957 24.791 0 42.786-19.894 42.786-53.072 0-33.179-18.26-52.807-42.985-52.807v.003zm-4.265 88.855c-17.128 0-26.725-14.686-26.725-36.25 0-21.565 9.329-35.65 26.725-35.65 17.395 0 27.125 15.288 27.125 35.65 0 20.36-9.329 36.25-27.125 36.25zm110.006-88.855c-28.857 0-47.717 21.16-47.717 53.072 0 31.911 18.86 52.873 47.717 52.873 28.858 0 47.718-21.161 47.718-52.873 0-31.712-18.86-53.072-47.718-53.072zm.067 89.187c-18.86 0-27.659-16.49-27.659-36.181 0-19.692 8.796-36.317 27.659-36.317 18.862 0 27.523 16.689 27.523 36.317 0 19.627-8.796 36.181-27.523 36.181zm212.194-12.948c-2.132-18.026 6.13-41.591 18.661-59.146l4.133-5.742-11.263-12.016-6.064 3.606c-10.663 6.409-28.857 7.676-46.651-.667l-4.799 2.538c-2.533 9.48-9.663 29.775-9.931 30.24l17.926 7.009c2.467-5.407 5.064-13.418 6.865-19.16 5.799 2.471 16.794 2.203 22.86 1.267-5.931 15.356-11.263 30.509-11.13 49.533 0 28.439 23.791 37.919 39.786 29.975 6.865-3.471 10.998-6.81 14.462-11.149l-13.862-10.947c-6.998 9.878-19.661 7.277-20.993-5.341zm129.727 8.011V0h-19.927v50.803h-1.199c-3.599-6.342-10.395-17.96-29.457-17.96-24.725 0-42.919 19.56-42.919 52.807 0 33.248 17.929 53.072 42.787 53.072 18.661 0 25.992-11.414 29.589-17.959h1.666c0 8.811 7.13 15.956 15.929 15.956H770.5v-19.628h-14.255v.003zm-46.32 4.607c-17.793 0-27.059-15.687-27.059-36.25 0-20.563 9.064-35.65 27.059-35.65s26.725 14.22 26.725 35.65c0 21.429-9.531 36.25-26.725 36.25zM560.198 85.952c.066-1.116.066-2.232.066-3.347 0-10.6-1.889-20.155-5.602-28.244-3.778-8.23-9.119-14.715-15.828-19.387C532.06 30.37 524.048 28 515.059 28c-7.035 0-13.418 1.395-19.085 4.114-5.667 2.79-10.357 6.695-14.004 11.647-3.583 4.951-5.863 10.879-6.775 17.504L475 62.729h17.326l.261-.976c1.042-4.393 3.452-8.368 7.23-11.855 3.648-3.418 8.728-5.161 14.981-5.161 5.602 0 10.552 1.534 14.721 4.603 4.169 2.998 7.426 7.392 9.771 12.901 1.823 4.324 2.931 9.206 3.387 14.715-15.763-8.787-38.952-7.973-53.347 4.79-7.295 6.485-11.855 16.248-11.855 25.593 0 6.276 1.694 11.855 5.081 16.598 3.322 4.672 7.881 8.368 13.548 11.018 5.537 2.581 11.855 3.906 18.694 3.906 15.959 0 30.68-10.23 38.496-25.502 1.173-2.301 2.215-4.742 3.127-7.183 5.767 10.324 5.495 19.135 5.767 30.824H580c0-23.99-4.95-39.053-19.802-51.048zM542.031 97.5c-.977 4.951-3.393 12.559-7.561 16.185-9.966 8.438-27.423 7.671-35.76-2.301-7.449-8.866 1.772-26.368 18.79-25.432 6.942.382 16.97 3.048 24.531 11.548z"/></svg>
